Coordinates
version=1
nRows=26
nColumns=22
inDegrees=yes

Units are S.I. units (second, meters, Newtons, ...)
If the header above contains a line with 'inDegrees', this indicates whether rotational values are in degrees (yes) or radians (no).

endheader
time	pelvis_tilt	pelvis_list	pelvis_rotation	pelvis_tx	pelvis_ty	pelvis_tz	hip_flexion_r	hip_adduction_r	hip_rotation_r	knee_angle_r	ankle_angle_r	subtalar_angle_r	hip_flexion_l	hip_adduction_l	hip_rotation_l	knee_angle_l	ankle_angle_l	subtalar_angle_l	lumbar_extension	lumbar_bending	lumbar_rotation
      1.12000000	      4.07112652	     -5.82257503	      7.22933452	      0.84859012	      0.90705640	      0.00381328	     20.31597908	      4.33193540	    -17.21938087	    -24.10998416	      0.40416730	     -7.08279760	     -0.81654245	     -8.24621221	      2.78703090	    -54.08002604	      5.05626420	      3.94273412	    -14.36682553	      6.81750667	    -10.26129675
      1.13000000	      4.00466952	     -5.80212345	      7.73133232	      0.84099085	      0.90588970	      0.00187428	     20.73690631	      4.01020996	    -17.62789105	    -23.85066067	     -0.11556488	     -7.09622362	     -1.16679322	     -8.16109358	      2.87376604	    -52.68294518	      5.62397188	      4.07436341	    -14.27952546	      6.85883040	    -10.62120019
      1.14000000	      3.91888146	     -5.75799488	      8.22929236	      0.83309510	      0.90470376	     -0.00007537	     21.15219925	      3.66987410	    -17.98316752	    -23.52002454	     -0.70668712	     -7.14453848	     -1.45256844	     -8.06348645	      2.93002479	    -51.28295505	      6.41968554	      4.07192417	    -14.20139821	      6.85411610	    -10.93588020
      1.15000000	      3.82708638	     -5.68918536	      8.75549718	      0.82491996	      0.90351696	     -0.00210045	     21.54259639	      3.29276450	    -18.35790741	    -23.12203910	     -1.29259589	     -7.23608654	     -1.67724249	     -7.94665020	      3.00574637	    -49.92160440	      7.44684200	      3.96468044	    -14.14259167	      6.81566917	    -11.25110504
      1.16000000	      3.72775554	     -5.59142662	      9.30105016	      0.81647942	      0.90232220	     -0.00418420	     21.91493915	      2.87593229	    -18.74313020	    -22.67284372	     -1.84195683	     -7.40118917	     -1.83218467	     -7.80073479	      3.09939747	    -48.64260335	      8.71292679	      3.72095781	    -14.10184109	      6.73313035	    -11.55995325
      1.17000000	      3.61166942	     -5.45878283	      9.84880082	      0.80778034	      0.90112594	     -0.00630331	     22.28010475	      2.42634113	    -19.07041517	    -22.17455924	     -2.31843645	     -7.69951627	     -1.90391270	     -7.59933727	      3.22323780	    -47.47539632	     10.17253773	      3.22763832	    -14.07252459	      6.59825562	    -11.85819494
      1.18000000	      3.48495121	     -5.27119606	     10.36915870	      0.79884253	      0.89992895	     -0.00841457	     22.65978202	      1.91239961	    -19.38194088	    -21.69652053	     -2.67918576	     -8.03636887	     -1.89390380	     -7.32997636	      3.30635759	    -46.44957876	     11.79066884	      2.70037824	    -14.07201895	      6.38166119	    -12.11406208
      1.19000000	      3.35611219	     -5.02711172	     10.85441986	      0.78970794	      0.89878795	     -0.01050250	     23.04222602	      1.34440302	    -19.63322448	    -21.23922398	     -2.89711809	     -8.40809358	     -1.81731837	     -6.98064542	      3.34469817	    -45.55122483	     13.47477774	      2.08297437	    -14.10833492	      6.08508866	    -12.33534508
      1.20000000	      3.23136945	     -4.72187129	     11.29314371	      0.78040415	      0.89774938	     -0.01253845	     23.42225273	      0.72158195	    -19.82894851	    -20.81056936	     -2.94168380	     -8.75298314	     -1.68551260	     -6.54363876	      3.31748226	    -44.76490231	     15.14280871	      1.42841798	    -14.19400520	      5.70156835	    -12.51051672
      1.21000000	      3.11256446	     -4.34764516	     11.68650012	      0.77095850	      0.89685444	     -0.01452818	     23.78924685	      0.03942550	    -19.95798998	    -20.39899232	     -2.79209815	     -9.03362667	     -1.50603303	     -6.00987277	      3.21201236	    -44.07369822	     16.72639302	      0.71448964	    -14.33071371	      5.22800221	    -12.63476983
      1.22000000	      3.00836831	     -3.90779025	     12.02147269	      0.76143439	      0.89616323	     -0.01641217	     24.13105994	     -0.68577218	    -20.02033711	    -20.00169772	     -2.42676118	     -9.18281969	     -1.31551445	     -5.38589078	      3.02398452	    -43.42740988	     18.15527144	     -0.00685962	    -14.52524422	      4.66284775	    -12.71059821
      1.23000000	      2.91940603	     -3.41133341	     12.29052889	      0.75187072	      0.89570806	     -0.01817766	     24.43116461	     -1.43133858	    -19.99981186	    -19.57987027	     -1.87845832	     -9.18368263	     -1.12940114	     -4.68044805	      2.76092877	    -42.80124015	     19.40614437	     -0.78294293	    -14.77433169	      4.01758831	    -12.71356728
      1.24000000	      2.84977663	     -2.87639272	     12.48517052	      0.74233729	      0.89550820	     -0.01979301	     24.68094737	     -2.17168407	    -19.92410863	    -19.12078688	     -1.15971964	     -8.99927443	     -0.97282784	     -3.91909489	      2.43000724	    -42.16038979	     20.48780088	     -1.64888947	    -15.06778414	      3.31156294	    -12.62194201
      1.25000000	      2.81421219	     -2.28756673	     12.60791253	      0.73286380	      0.89561119	     -0.02125294	     24.83969245	     -2.90324471	    -19.73488983	    -18.58324804	     -0.27087880	     -8.61271663	     -0.88458195	     -3.08446026	      2.08097325	    -41.46969906	     21.34931188	     -2.47140430	    -15.42140517	      2.53389144	    -12.48076958
      1.26000000	      2.81045163	     -1.67237018	     12.65319487	      0.72350421	      0.89599225	     -0.02255301	     24.91170088	     -3.59867109	    -19.46617268	    -17.96484211	      0.71471715	     -8.03046535	     -0.87056484	     -2.20674421	      1.73597546	    -40.71362749	     22.03004583	     -3.27023269	    -15.81396211	      1.71608954	    -12.26212188
      1.27000000	      2.83820205	     -1.04854981	     12.62653010	      0.71429424	      0.89661953	     -0.02370001	     24.89946680	     -4.24442572	    -19.13658636	    -17.27502538	      1.74834699	     -7.27469923	     -0.93085037	     -1.30604232	      1.42493861	    -39.88769550	     22.54213382	     -4.01012269	    -16.23045936	      0.87944817	    -11.97579180
      1.28000000	      2.88948011	     -0.44525824	     12.53209503	      0.70526246	      0.89742091	     -0.02472637	     24.83895348	     -4.83267711	    -18.81457615	    -16.57589988	      2.77939190	     -6.35749296	     -1.04669673	     -0.40750771	      1.17488505	    -39.00654377	     22.92506698	     -4.70821211	    -16.64462933	      0.05982531	    -11.57817669
      1.29000000	      2.94932303	      0.10629862	     12.38757702	      0.69642570	      0.89830150	     -0.02566358	     24.77012114	     -5.35379047	    -18.53389667	    -15.92939001	      3.72401909	     -5.22576876	     -1.17640252	      0.43814100	      0.93597849	    -38.10532698	     23.30059910	     -5.44041800	    -17.02088092	     -0.69767121	    -11.17532762
      1.30000000	      3.00360224	      0.60889438	     12.19597656	      0.68775513	      0.89921734	     -0.02652138	     24.74144507	     -5.82590180	    -18.29399271	    -15.42317303	      4.53395888	     -4.07227243	     -1.29477724	      1.25037160	      0.74814988	    -37.20151879	     23.58190386	     -6.08213389	    -17.34893263	     -1.40478588	    -10.69220824
      1.31000000	      3.03309352	      1.04569226	     11.96620832	      0.67924651	      0.90009812	     -0.02733324	     24.80931982	     -6.25495828	    -18.11398655	    -15.15156194	      5.16012686	     -2.93631810	     -1.36314288	      2.00425189	      0.56962586	    -36.32236758	     23.83547747	     -6.67833131	    -17.60144014	     -2.03506434	    -10.16260818
      1.32000000	      3.02524826	      1.40979365	     11.71146001	      0.67086506	      0.90091583	     -0.02811635	     25.01245905	     -6.64860344	    -17.98467091	    -15.19016322	      5.60917015	     -1.91650221	     -1.34691798	      2.68747573	      0.37824842	    -35.49990309	     24.04583921	     -7.22039899	    -17.76932063	     -2.58009182	     -9.58698811
      1.33000000	      2.97158102	      1.70550029	     11.44506380	      0.66260220	      0.90166930	     -0.02888577	     25.36781852	     -7.01825646	    -17.87391686	    -15.58303424	      5.90494029	     -1.06540612	     -1.23886676	      3.29788399	      0.15763366	    -34.72987568	     24.25103341	     -7.69965426	    -17.84961558	     -3.04365043	     -8.99825908
      1.34000000	      2.87191712	      1.93875054	     11.17780787	      0.65444777	      0.90238636	     -0.02967377	     25.87624628	     -7.37394902	    -17.74671879	    -16.35248769	      6.08772557	     -0.38248818	     -1.04343003	      3.84014232	     -0.08543309	    -34.00658487	     24.42731511	     -8.13046398	    -17.84994321	     -3.42415199	     -8.40599241
      1.35000000	      2.74390446	      2.13966822	     10.91665726	      0.64638404	      0.90313212	     -0.03049442	     26.50527232	     -7.73934634	    -17.56145260	    -17.48686233	      6.20876684	      0.11165697	     -0.78753414	      4.33386149	     -0.37008768	    -33.32052269	     24.53028870	     -8.48161878	    -17.80756134	     -3.75094477	     -7.82316925
      1.36000000	      2.59889756	      2.31930399	     10.67566614	      0.63840953	      0.90395495	     -0.03136171	     27.22226545	     -8.11546595	    -17.25816474	    -18.95207250	      6.30885619	      0.48535870	     -0.49224973	      4.78841563	     -0.67255711	    -32.66048327	     24.54355707	     -8.77720720	    -17.74236124	     -4.03351186	     -7.27193572
      1.37000000	      2.44844309	      2.48241118	     10.47589075	      0.63050809	      0.90488420	     -0.03229141	     27.99462219	     -8.50398975	    -16.82949170	    -20.70712143	      6.38623315	      0.81125916	     -0.15619651	      5.19823588	     -0.99447868	    -32.05327548	     24.47729861	     -9.05355562	    -17.67782402	     -4.27049508	     -6.79550741
